<svg width="14" height="14" viewBox="0 0 14 14" fill="none" xmlns="http://www.w3.org/2000/svg">
<path d="M6.97149 0.0449219C5.21457 0.0520812 3.52459 0.719656 2.23708 1.9151C0.949558 3.11055 0.15866 4.74645 0.0214057 6.49801C-0.115848 8.24957 0.41058 9.9887 1.49617 11.3701C2.58177 12.7515 4.14713 13.6742 5.88149 13.9549V9.04492H4.10149V7.04492H5.88149V5.50492C5.84232 5.1446 5.88294 4.78007 6.00045 4.4372C6.11796 4.09434 6.30949 3.78153 6.56145 3.52098C6.81341 3.26044 7.11962 3.05853 7.45835 2.9296C7.79709 2.80066 8.16005 2.74785 8.52149 2.77492C9.04759 2.78222 9.5724 2.82902 10.0915 2.91492V4.63492H9.20149C9.05009 4.61256 8.89559 4.62524 8.74987 4.67198C8.60415 4.71873 8.4711 4.7983 8.36097 4.90457C8.25084 5.01083 8.16657 5.14095 8.11465 5.28491C8.06273 5.42887 8.04454 5.58283 8.06149 5.73492V7.04492H9.97149L9.69149 9.04492H8.06149V13.9349C9.77235 13.63 11.3086 12.6995 12.3714 11.3245C13.4342 9.94956 13.9476 8.22843 13.8116 6.49592C13.6756 4.76341 12.9001 3.14342 11.6358 1.95108C10.3716 0.758729 8.70898 0.0792882 6.97149 0.0449219V0.0449219Z" fill="#232225"/>
</svg>
