<svg width="15" height="14" viewBox="0 0 15 14" fill="none" xmlns="http://www.w3.org/2000/svg">
<g clip-path="url(#clip0_7386_32792)">
<path d="M7.89311 4.79004C7.45601 4.79004 7.02873 4.91965 6.6653 5.16249C6.30186 5.40533 6.0186 5.75048 5.85133 6.15431C5.68406 6.55813 5.6403 7.00249 5.72557 7.43119C5.81084 7.85989 6.02133 8.25367 6.3304 8.56275C6.63947 8.87182 7.03326 9.0823 7.46196 9.16757C7.89065 9.25285 8.33501 9.20908 8.73884 9.04181C9.14266 8.87454 9.48782 8.59128 9.73065 8.22785C9.97349 7.86442 10.1031 7.43714 10.1031 7.00004C10.1031 6.70982 10.0459 6.42244 9.93488 6.15431C9.82382 5.88618 9.66103 5.64255 9.45581 5.43733C9.2506 5.23212 9.00697 5.06933 8.73884 4.95827C8.47071 4.8472 8.18333 4.79004 7.89311 4.79004Z" fill="#232225"/>
<path d="M10.623 0H5.04301C3.92726 0.00264084 2.85796 0.447041 2.06901 1.236C1.28005 2.02495 0.835649 3.09425 0.833008 4.21L0.833008 9.79C0.835649 10.9057 1.28005 11.975 2.06901 12.764C2.85796 13.553 3.92726 13.9974 5.04301 14H10.623C11.7388 13.9974 12.8081 13.553 13.597 12.764C14.386 11.975 14.8304 10.9057 14.833 9.79V4.21C14.8304 3.09425 14.386 2.02495 13.597 1.236C12.8081 0.447041 11.7388 0.00264084 10.623 0V0ZM7.89301 10.45C7.21066 10.45 6.54364 10.2477 5.97629 9.86857C5.40894 9.48948 4.96675 8.95066 4.70562 8.32026C4.4445 7.68985 4.37618 6.99617 4.5093 6.32694C4.64242 5.6577 4.971 5.04297 5.45349 4.56048C5.93598 4.07799 6.55071 3.74941 7.21995 3.61629C7.88918 3.48317 8.58286 3.55149 9.21327 3.81262C9.84367 4.07374 10.3825 4.51593 10.7616 5.08328C11.1407 5.65063 11.343 6.31765 11.343 7C11.3404 7.91419 10.976 8.79017 10.3296 9.4366C9.68318 10.083 8.80719 10.4474 7.89301 10.45ZM11.543 4.14C11.3808 4.14 11.2223 4.09191 11.0874 4.00181C10.9526 3.9117 10.8475 3.78364 10.7854 3.6338C10.7234 3.48397 10.7071 3.31909 10.7388 3.16003C10.7704 3.00096 10.8485 2.85485 10.9632 2.74017C11.0779 2.62549 11.224 2.5474 11.383 2.51576C11.5421 2.48412 11.707 2.50035 11.8568 2.56242C12.0066 2.62448 12.1347 2.72958 12.2248 2.86443C12.3149 2.99928 12.363 3.15782 12.363 3.32C12.363 3.53748 12.2766 3.74605 12.1228 3.89983C11.9691 4.05361 11.7605 4.14 11.543 4.14Z" fill="#232225"/>
</g>
<defs>
<clipPath id="clip0_7386_32792">
<rect width="14" height="14" fill="white" transform="translate(0.833008)"/>
</clipPath>
</defs>
</svg>
