<svg width="15" height="14" viewBox="0 0 15 14" fill="none" xmlns="http://www.w3.org/2000/svg">
<g clip-path="url(#clip0_7386_32804)">
<path d="M13.483 3.75939e-05H2.18305C2.00707 -0.00128054 1.83256 0.0320759 1.66948 0.0982022C1.5064 0.164328 1.35794 0.26193 1.23258 0.385432C1.10722 0.508935 1.00742 0.655921 0.938864 0.817997C0.870311 0.980073 0.834354 1.15406 0.833045 1.33004V12.65C0.831727 12.826 0.865084 13.0005 0.93121 13.1636C0.997336 13.3267 1.09494 13.4751 1.21844 13.6005C1.34194 13.7259 1.48893 13.8257 1.651 13.8942C1.81308 13.9628 1.98707 13.9987 2.16305 14H13.483C13.659 14.0014 13.8335 13.968 13.9966 13.9019C14.1597 13.8357 14.3081 13.7381 14.4335 13.6146C14.5589 13.4911 14.6587 13.3442 14.7272 13.1821C14.7958 13.02 14.8317 12.846 14.833 12.67V1.35004C14.8344 1.17406 14.801 0.999556 14.7349 0.836475C14.6688 0.673394 14.5712 0.524935 14.4476 0.399575C14.3241 0.274215 14.1772 0.174409 14.0151 0.105856C13.853 0.0373031 13.679 0.00134592 13.503 3.75939e-05H13.483ZM5.16305 11.77H3.02305V5.33004H5.16305V11.77ZM4.09305 4.45004C3.87351 4.45004 3.6589 4.38494 3.47636 4.26297C3.29382 4.141 3.15155 3.96764 3.06754 3.76482C2.98353 3.56199 2.96154 3.33881 3.00437 3.12349C3.0472 2.90817 3.15292 2.71039 3.30816 2.55515C3.46339 2.39991 3.66118 2.2942 3.8765 2.25137C4.09181 2.20854 4.315 2.23052 4.51782 2.31453C4.72065 2.39854 4.89401 2.54082 5.01598 2.72335C5.13795 2.90589 5.20305 3.1205 5.20305 3.34004C5.20305 3.63443 5.0861 3.91676 4.87793 4.12493C4.66977 4.33309 4.38744 4.45004 4.09305 4.45004ZM12.883 11.77H10.743V8.33004C10.743 7.46004 10.433 6.87004 9.66304 6.87004C9.42092 6.86769 9.18424 6.94183 8.98672 7.08189C8.78921 7.22195 8.64094 7.42078 8.56305 7.65004C8.50488 7.82033 8.48108 8.00048 8.49305 8.18004V11.77H6.34305V5.33004H8.49305V6.24004C8.68932 5.90578 8.9723 5.63081 9.31205 5.44421C9.6518 5.25761 10.0357 5.16634 10.423 5.18004C11.833 5.18004 12.883 6.10004 12.883 8.08004V11.77Z" fill="#232225"/>
</g>
<defs>
<clipPath id="clip0_7386_32804">
<rect width="14" height="14" fill="white" transform="translate(0.833008)"/>
</clipPath>
</defs>
</svg>
